<?xml version="1.0" standalone="no"?>
<!DOCTYPE svg PUBLIC "-//W3C//DTD SVG 20010904//EN"
 "http://www.w3.org/TR/2001/REC-SVG-20010904/DTD/svg10.dtd">
<svg version="1.0" xmlns="http://www.w3.org/2000/svg"
 width="700.000000pt" height="700.000000pt" viewBox="0 0 700.000000 700.000000"
 preserveAspectRatio="xMidYMid meet">
<metadata>
Created by potrace 1.14, written by Peter Selinger 2001-2017
</metadata>
<g transform="translate(0.000000,700.000000) scale(0.100000,-0.100000)"
fill="#000000" stroke="none">
<path d="M109 6977 c-63 -33 -103 -94 -105 -160 -4 -102 58 -185 151 -203 22
-4 1481 -7 3242 -7 2295 0 3203 -3 3206 -11 2 -6 4 -1404 3 -3106 l-1 -3095
-3085 -2 c-1697 -1 -3094 0 -3106 2 l-20 4 0 2548 c0 1964 -3 2556 -13 2583
-16 47 -50 84 -99 109 -104 53 -240 -5 -272 -117 -8 -26 -10 -833 -8 -2714 l3
-2676 30 -44 c18 -25 49 -52 75 -65 l45 -23 3345 1 3345 0 45 22 c26 13 56 40
75 65 l30 44 2 3352 c2 2472 0 3362 -8 3385 -16 47 -80 108 -125 120 -28 8
-1029 11 -3375 11 l-3336 0 -44 -23z"/>
<path d="M922 6168 c-47 -23 -83 -64 -101 -117 -16 -50 -16 -5047 1 -5103 15
-50 76 -111 127 -126 55 -17 5053 -17 5102 0 57 19 90 49 115 102 l24 51 0
2520 c0 1743 -3 2532 -11 2558 -13 48 -76 110 -127 125 -30 9 -651 12 -2563
11 l-2524 0 -43 -21z m1368 -974 c59 -20 97 -45 141 -91 80 -85 111 -160 111
-268 -1 -208 -173 -381 -376 -376 -242 5 -415 212 -373 446 40 226 276 363
497 289z m2659 5 c107 -35 203 -128 240 -234 98 -277 -137 -553 -424 -500
-247 46 -378 311 -268 543 25 53 106 135 159 162 92 46 206 57 293 29z m-1285
-1359 c242 -119 288 -438 89 -620 -75 -69 -145 -94 -258 -94 -82 0 -96 3 -157
33 -82 40 -149 109 -185 189 -22 48 -26 71 -27 152 0 84 3 102 28 155 41 86
126 165 213 198 98 37 204 32 297 -13z m-1347 -1330 c93 -41 167 -120 203
-217 80 -213 -49 -446 -275 -499 -228 -52 -456 128 -456 361 0 88 4 106 41
181 86 175 306 254 487 174z m2667 1 c216 -95 297 -367 166 -556 -75 -108
-177 -165 -305 -169 -247 -10 -440 232 -375 470 39 144 137 241 280 277 63 16
171 6 234 -22z"/>
</g>
</svg>
